<svg xmlns="http://www.w3.org/2000/svg" viewBox="-16.655 17.351 9.826 6.855">
  <path d="M -16.532 23.763 L -16.471 23.466 L -16.491 23.16 L -16.491 23.16 L -16.655 22.936 L -16.491 22.344 L -16.43 21.895 L -16.512 21.059 L -16.328 20.814 L -16.022 20.712 L -15.064 20.814 L -14.615 20.835 L -14.507 20.738 L -14.476 20.008 L -14.486 19.582 L -14.811 19.126 L -15.308 18.892 L -15.308 18.892 L -15.318 18.527 L -14.993 18.416 L -14.699 18.477 L -14.588 18.436 L -14.649 18.061 L -14.486 18.051 L -14.466 18.142 L -14.172 18.182 L -13.979 17.929 L -13.766 17.544 L -13.533 17.351 L -13.249 17.615 L -12.884 18.051 L -12.488 18.253 L -12.488 18.253 L -12.275 18.568 L -12.397 19.166 L -12.326 19.673 L -11.951 19.592 L -11.647 19.369 L -11.353 19.257 L -11.048 19.399 L -10.825 19.734 L -11.109 19.967 L -11.069 20.485 L -10.704 21.083 L -10.278 21.56 L -10.105 21.549 L -10.044 21.793 L -9.608 22.117 L -9.476 22.462 L -9.517 22.523 L -9.649 22.31 L -9.842 22.198 L -9.943 22.493 L -9.781 22.675 L -9.781 22.908 L -10.034 23.365 L -10.146 23.365 L -10.196 23.233 L -10.105 23.081 L -10.085 22.858 L -10.217 22.381 L -10.43 22.239 L -10.714 21.884 L -11.16 21.61 L -11.454 21.184 L -11.687 20.627 L -12.012 20.424 L -12.235 20.637 L -12.539 20.931 L -12.884 20.91 L -13.188 20.819 L -13.401 21.063 L -13.391 21.448 L -13.513 21.691 L -13.928 21.955 L -14.273 22.594 L -14.121 22.908 L -14.375 23.405 L -14.456 23.618 L -14.73 23.872 L -15.318 23.933 L -15.531 24.044 L -15.632 24.206 L -15.815 24.166 L -15.916 23.801 L -16.068 23.699 L -16.332 23.791 L -16.525 23.73 M -8.734 20.313 L -8.9 20.195 L -9.007 19.923 L -9.196 19.651 L -8.971 19.461 L -8.723 18.881 L -8.498 18.787 L -8.095 18.87 L -7.835 18.787 L -7.658 18.657 L -7.445 18.846 L -7.208 19.296 L -7.161 19.828 L -7.149 20.005 L -6.936 19.958 L -6.829 20.041 L -6.865 20.207 L -6.96 20.23 L -7.042 20.692 L -7.196 20.656 L -7.457 20.514 L -7.764 20.68 L -8.285 20.68 L -8.474 20.644 L -8.581 20.372 L -8.734 20.301" fill="#000000"/>
</svg>